<svg height="1.5rem" viewBox="0 0 24 24" fill="currentColor" xmlns="http://www.w3.org/2000/svg">
<path d="M5.76879 4.21162C8.29104 5.97119 11.004 9.53886 12.0001 11.4535C12.9962 9.53901 15.709 5.97116 18.2313 4.21162C20.0513 2.94199 23 1.95962 23 5.08557C23 5.70987 22.6148 10.33 22.3889 11.08C21.6036 13.6878 18.7421 14.3529 16.1967 13.9503C20.646 14.654 21.7778 16.9848 19.3335 19.3156C14.6911 23.7423 12.661 18.205 12.1406 16.7861C12.0453 16.526 12.0007 16.4043 12 16.5078C11.9993 16.4043 11.9547 16.526 11.8594 16.7861C11.3392 18.205 9.30916 23.7424 4.66654 19.3156C2.22213 16.9848 3.35395 14.6538 7.80331 13.9503C5.25785 14.3529 2.39627 13.6878 1.6111 11.08C1.38518 10.3299 1 5.7098 1 5.08557C1 1.95962 3.94882 2.94199 5.76866 4.21162H5.76879Z"></path>
</svg>