<svg height="1.5rem" viewBox="0 0 24 24" fill="currentColor" xmlns="http://www.w3.org/2000/svg">
<g clip-path="url(#clip0_2960_10920)">
<path d="M12 0C18.6274 0 24 5.37259 24 12C24 18.1352 19.3955 23.1944 13.4538 23.9121V15.667L16.7001 15.667L17.3734 12H13.4538V10.7031C13.4538 9.73417 13.6439 9.06339 14.0799 8.63483C14.5159 8.20627 15.1979 8.01993 16.1817 8.01993C16.4307 8.01993 16.6599 8.02241 16.8633 8.02736C17.1591 8.03456 17.4002 8.047 17.568 8.06467V4.74048C17.501 4.72184 17.4218 4.70321 17.3331 4.68486C17.1321 4.6433 16.8822 4.60324 16.6136 4.56806C16.0523 4.49453 15.4093 4.4423 14.9594 4.4423C13.1424 4.4423 11.7692 4.83102 10.8107 5.63619C9.65388 6.60791 9.10108 8.18622 9.10108 10.4199V12H6.62659V15.667H9.10108V23.6466C3.87432 22.3498 0 17.6277 0 12C0 5.37259 5.37259 0 12 0Z"></path>
</g>
<defs>
<clipPath id="clip0_2960_10920">
<rect width="24" height="24" fill="white"></rect>
</clipPath>
</defs>
</svg>