<svg height="1.5rem" viewBox="0 0 24 24" fill="none" xmlns="http://www.w3.org/2000/svg">
<path d="M6.79484 14.378C6.79484 15.4242 5.94997 16.2698 4.90462 16.2698C3.85927 16.2698 3.0144 15.4242 3.0144 14.378C3.0144 13.3319 3.85927 12.4863 4.90462 12.4863H6.79484V14.378ZM7.73994 14.378C7.73994 13.3319 8.58481 12.4863 9.63016 12.4863C10.6755 12.4863 11.5204 13.3319 11.5204 14.378V19.1073C11.5204 20.1535 10.6755 20.9991 9.63016 20.9991C8.58481 20.9991 7.73994 20.1535 7.73994 19.1073V14.378Z" fill="currentColor"></path>
<path d="M9.63007 6.78344C8.58473 6.78344 7.73986 5.9379 7.73986 4.89172C7.73986 3.84554 8.58473 3 9.63007 3C10.6754 3 11.5203 3.84554 11.5203 4.89172V6.78344H9.63007ZM9.63007 7.74363C10.6754 7.74363 11.5203 8.58917 11.5203 9.63535C11.5203 10.6815 10.6754 11.5271 9.63007 11.5271H4.89022C3.84487 11.5271 3 10.6815 3 9.63535C3 8.58917 3.84487 7.74363 4.89022 7.74363H9.63007Z" fill="currentColor"></path>
<path d="M17.2053 9.63535C17.2053 8.58917 18.0501 7.74363 19.0955 7.74363C20.1408 7.74363 20.9857 8.58917 20.9857 9.63535C20.9857 10.6815 20.1408 11.5271 19.0955 11.5271H17.2053V9.63535ZM16.2602 9.63535C16.2602 10.6815 15.4153 11.5271 14.37 11.5271C13.3246 11.5271 12.4797 10.6815 12.4797 9.63535V4.89172C12.4797 3.84554 13.3246 3 14.37 3C15.4153 3 16.2602 3.84554 16.2602 4.89172V9.63535Z" fill="currentColor"></path>
<path d="M14.37 17.2156C15.4153 17.2156 16.2602 18.0612 16.2602 19.1073C16.2602 20.1535 15.4153 20.9991 14.37 20.9991C13.3246 20.9991 12.4797 20.1535 12.4797 19.1073V17.2156H14.37ZM14.37 16.2698C13.3246 16.2698 12.4797 15.4242 12.4797 14.378C12.4797 13.3319 13.3246 12.4863 14.37 12.4863H19.1098C20.1552 12.4863 21 13.3319 21 14.378C21 15.4242 20.1552 16.2698 19.1098 16.2698H14.37Z" fill="currentColor"></path>
</svg>