<svg xmlns="http://www.w3.org/2000/svg" height="1.5rem" viewBox="0 0 24 24" fill="currentColor">
  <path d="M20.775 8.26667C20.55 6.75 19.875 5.7 18.3 5.46667C15.825 5 12 5 12 5C12 5 8.175 5 5.7 5.46667C4.125 5.7 3.3375 6.75 3.225 8.26667C3 9.78333 3 12 3 12C3 12 3 14.2167 3.225 15.7333C3.45 17.25 4.125 18.3 5.7 18.5333C8.175 19 12 19 12 19C12 19 15.825 19 18.3 18.5333C19.875 18.1833 20.55 17.25 20.775 15.7333C21 14.2167 21 12 21 12C21 12 21 9.78333 20.775 8.26667ZM9.75 15.5V8.5L15.375 12L9.75 15.5Z"></path>
</svg>