<?xml version="1.0" encoding="UTF-8" standalone="no"?>
<!-- Created with Inkscape (http://www.inkscape.org/) -->

<svg
   xmlns:dc="http://purl.org/dc/elements/1.1/"
   xmlns:cc="http://creativecommons.org/ns#"
   xmlns:rdf="http://www.w3.org/1999/02/22-rdf-syntax-ns#"
   xmlns:svg="http://www.w3.org/2000/svg"
   xmlns="http://www.w3.org/2000/svg"
   xmlns:sodipodi="http://sodipodi.sourceforge.net/DTD/sodipodi-0.dtd"
   xmlns:inkscape="http://www.inkscape.org/namespaces/inkscape"
   width="1227.9152"
   height="449.1246"
   id="svg3837"
   version="1.1"
   inkscape:version="0.48.2 r9819"
   sodipodi:docname="logo_browns_50px_margin.svg"
   inkscape:export-filename="Y:\admin\Logo and Templates\logo_browns_50px_margin.png"
   inkscape:export-xdpi="95.986725"
   inkscape:export-ydpi="95.986725">
  <defs
     id="defs3839" />
  <sodipodi:namedview
     id="base"
     pagecolor="#ffffff"
     bordercolor="#666666"
     borderopacity="1.0"
     inkscape:pageopacity="0.0"
     inkscape:pageshadow="2"
     inkscape:zoom="0.24748737"
     inkscape:cx="720.55029"
     inkscape:cy="403.21745"
     inkscape:document-units="px"
     inkscape:current-layer="layer1"
     showgrid="false"
     fit-margin-top="50"
     fit-margin-right="50"
     fit-margin-bottom="50"
     fit-margin-left="50"
     inkscape:window-width="956"
     inkscape:window-height="467"
     inkscape:window-x="75"
     inkscape:window-y="75"
     inkscape:window-maximized="0" />
  <metadata
     id="metadata3842">
    <rdf:RDF>
      <cc:Work
         rdf:about="">
        <dc:format>image/svg+xml</dc:format>
        <dc:type
           rdf:resource="http://purl.org/dc/dcmitype/StillImage" />
        <dc:title></dc:title>
      </cc:Work>
    </rdf:RDF>
  </metadata>
  <g
     inkscape:label="Layer 1"
     inkscape:groupmode="layer"
     id="layer1"
     transform="translate(582.529,-90.657075)">
    <g
       transform="matrix(1.25,0,0,-1.25,-1185.5492,1041.1997)"
       id="g3732">
      <g
         transform="translate(885.918,536.8232)"
         id="g3003">
        <path
           inkscape:connector-curvature="0"
           id="path3005"
           style="fill:#505050;fill-opacity:1;fill-rule:nonzero;stroke:none"
           d="m 0,0 c -4.244,0 -6.365,2.334 -6.365,7.003 l 0,168.574 c 0,4.667 2.121,7.003 6.365,7.003 l 11.715,0 c 4.242,0 6.365,-2.336 6.365,-7.003 l 0,-154.696 84.414,0 c 4.668,0 7.004,-1.909 7.004,-5.73 l 0,-9.422 C 109.498,1.91 107.162,0 102.494,0 L 0,0 z" />
      </g>
      <g
         transform="translate(1011.8184,583.4229)"
         id="g3007">
        <path
           inkscape:connector-curvature="0"
           id="path3009"
           style="fill:#505050;fill-opacity:1;fill-rule:nonzero;stroke:none"
           d="m 0,0 0,81.358 c 0,3.821 1.91,5.73 5.729,5.73 l 10.949,0 c 3.82,0 5.73,-1.909 5.73,-5.73 l 0,-75.248 c 0,-16.634 2.758,-27.181 8.276,-31.638 5.517,-4.455 12.351,-6.684 20.5,-6.684 10.775,0 19.029,3.288 24.761,9.867 5.729,6.576 8.596,17.845 8.596,33.804 l 0,69.899 c 0,3.821 1.889,5.73 5.664,5.73 l 10.826,0 c 3.776,0 5.664,-1.909 5.664,-5.73 l 0,-122.228 c 0,-3.818 -1.91,-5.731 -5.73,-5.731 l -10.694,0 c -3.82,0 -5.73,1.913 -5.73,5.731 l 0,10.185 c -5.586,-6.111 -11.603,-10.653 -18.045,-13.623 -6.447,-2.97 -14.308,-4.457 -23.59,-4.457 -14.853,0 -25.718,4.35 -32.593,13.051 C 3.438,-27.015 0,-15.108 0,0" />
      </g>
      <g
         transform="translate(1142.0781,653.7051)"
         id="g3011">
        <path
           inkscape:connector-curvature="0"
           id="path3013"
           style="fill:#505050;fill-opacity:1;fill-rule:nonzero;stroke:none"
           d="m 0,0 c -3.82,0 -5.73,1.482 -5.73,4.456 l 0,7.894 c 0,2.97 1.91,4.456 5.73,4.456 l 15.023,0 0,45.467 c 0,2.911 1.305,4.456 3.694,4.456 l 14.896,0 c 2.547,0 3.819,-1.486 3.819,-4.456 l 0,-45.467 27.121,0 c 3.818,0 5.728,-1.486 5.728,-4.456 l 0,-7.894 C 70.281,1.482 68.371,0 64.553,0 l -27.121,0 0,-81.104 c 0,-8.914 1.338,-14.707 4.011,-17.378 2.674,-2.675 5.877,-4.012 9.614,-4.012 2.884,0 6.343,0.848 10.377,2.546 4.029,1.697 6.81,3.139 8.337,4.329 1.53,1.187 2.717,0.806 3.567,-1.147 l 4.201,-9.802 c 0.678,-1.7 0.168,-3.056 -1.527,-4.075 -3.311,-1.955 -8.149,-3.841 -14.516,-5.666 -6.365,-1.824 -12.732,-2.737 -19.098,-2.737 -8.83,0 -15.597,3.183 -20.308,9.549 -4.711,6.366 -7.067,15.362 -7.067,26.992 L 15.023,0 0,0 z" />
      </g>
      <g
         transform="translate(1243.8379,536.8232)"
         id="g3015">
        <path
           inkscape:connector-curvature="0"
           id="path3017"
           style="fill:#505050;fill-opacity:1;fill-rule:nonzero;stroke:none"
           d="m 0,0 c -3.775,0 -5.662,1.91 -5.662,5.729 l 0,122.23 c 0,3.819 1.908,5.729 5.728,5.729 l 10.696,0 c 3.82,0 5.728,-1.91 5.728,-5.729 l 0,-15.278 c 4.117,7.638 8.963,13.41 14.537,17.315 5.575,3.901 12.524,5.857 20.844,5.857 5.488,0 9.348,-0.468 11.578,-1.401 1.951,-0.764 2.674,-2.037 2.164,-3.82 L 62.686,120.19 c -0.426,-1.526 -1.53,-2.121 -3.309,-1.781 -2.988,0.593 -5.803,0.892 -8.449,0.892 -9.987,0 -18.223,-4.48 -24.709,-13.433 C 19.734,96.912 16.49,84.711 16.49,69.263 l 0,-63.534 C 16.49,1.91 14.604,0 10.828,0 L 0,0 z" />
      </g>
      <g
         transform="translate(1340.541,573.2373)"
         id="g3019">
        <path
           inkscape:connector-curvature="0"
           id="path3021"
           style="fill:#505050;fill-opacity:1;fill-rule:nonzero;stroke:none"
           d="m 0,0 c 0,-8.319 1.973,-13.964 5.92,-16.935 3.947,-2.97 10.205,-4.455 18.779,-4.455 6.535,0 12.733,0.636 18.59,1.911 5.857,1.272 11.883,4.625 18.08,10.057 l 0,37.56 C 32.422,25.931 14.959,22.132 8.975,16.743 2.992,11.353 0,5.771 0,0 m -23.174,-0.765 c 0,15.11 7.067,26.186 21.199,33.232 14.133,7.046 35.246,11.161 63.344,12.35 l 0,8.659 c 0,7.977 -1.805,14.875 -5.412,20.689 -3.609,5.814 -10.758,8.723 -21.453,8.723 -8.234,0 -15.215,-1.191 -20.945,-3.567 C 7.83,76.944 2.461,72.955 -2.547,67.354 -4.84,64.808 -7.004,64.681 -9.041,66.972 l -6.621,7.638 c -1.867,2.121 -1.231,4.666 1.91,7.64 6.959,6.621 15.107,11.142 24.447,13.56 9.336,2.419 17.272,3.628 23.809,3.628 17.738,0 30.387,-4.563 37.941,-13.687 C 80,76.626 83.777,64.127 83.777,48.255 l 0,-78.94 c 0,-3.819 -1.931,-5.729 -5.795,-5.729 l -11.589,0 c -3.352,0 -5.024,1.91 -5.024,5.729 l 0,6.239 c -6.707,-5.264 -13.264,-8.934 -19.672,-11.013 -6.41,-2.079 -13.56,-3.119 -21.453,-3.119 -13.922,0 -24.637,3.33 -32.148,9.994 -7.514,6.663 -11.27,15.937 -11.27,27.819" />
      </g>
      <g
         transform="translate(879.2051,464.6982)"
         id="g3023">
        <path
           inkscape:connector-curvature="0"
           id="path3025"
           style="fill:#505050;fill-opacity:1;fill-rule:nonzero;stroke:none"
           d="m 0,0 c 0,6.834 1.693,12.188 5.082,16.064 3.387,3.876 8.254,5.814 14.6,5.814 3.709,0 6.775,-0.629 9.195,-1.889 2.422,-1.26 4.16,-2.982 5.213,-5.169 0.547,-1.132 0.459,-1.914 -0.264,-2.343 L 31.514,11.13 c -0.782,-0.449 -1.475,-0.078 -2.08,1.112 -0.645,1.231 -1.7,2.382 -3.163,3.456 -1.464,1.074 -3.564,1.612 -6.296,1.612 -4.883,0 -8.432,-1.519 -10.647,-4.555 C 7.111,9.719 6.004,5.467 6.004,0 c 0,-5.467 1.107,-9.719 3.324,-12.755 2.215,-3.036 5.764,-4.554 10.647,-4.554 2.81,0 5.06,0.645 6.75,1.933 1.689,1.289 2.914,2.636 3.675,4.042 0.606,1.132 1.309,1.474 2.11,1.025 l 2.429,-1.377 c 0.704,-0.41 0.762,-1.191 0.176,-2.342 -1.152,-2.246 -3.025,-4.116 -5.623,-5.609 -2.597,-1.494 -5.867,-2.241 -9.81,-2.241 -6.346,0 -11.213,1.938 -14.6,5.814 C 1.693,-12.188 0,-6.834 0,0" />
      </g>
      <g
         transform="translate(945.9805,464.6982)"
         id="g3027">
        <path
           inkscape:connector-curvature="0"
           id="path3029"
           style="fill:#505050;fill-opacity:1;fill-rule:nonzero;stroke:none"
           d="m 0,0 c 0,-5.467 1.123,-9.719 3.367,-12.755 2.246,-3.036 5.662,-4.554 10.252,-4.554 4.588,0 8.004,1.518 10.25,4.554 2.246,3.036 3.369,7.288 3.369,12.755 0,5.467 -1.123,9.719 -3.369,12.755 -2.246,3.036 -5.662,4.555 -10.25,4.555 -4.59,0 -8.006,-1.519 -10.252,-4.555 C 1.123,9.719 0,5.467 0,0 m -6.004,0 c 0,6.834 1.684,12.188 5.053,16.064 3.367,3.876 8.223,5.814 14.57,5.814 6.346,0 11.201,-1.938 14.569,-5.814 3.369,-3.876 5.054,-9.23 5.054,-16.064 0,-6.834 -1.685,-12.188 -5.054,-16.064 -3.368,-3.876 -8.223,-5.814 -14.569,-5.814 -6.347,0 -11.203,1.938 -14.57,5.814 -3.369,3.876 -5.053,9.23 -5.053,16.064" />
      </g>
      <g
         transform="translate(1008.9922,443.6992)"
         id="g3031">
        <path
           inkscape:connector-curvature="0"
           id="path3033"
           style="fill:#505050;fill-opacity:1;fill-rule:nonzero;stroke:none"
           d="m 0,0 c -0.977,0 -1.465,0.537 -1.465,1.61 l 0,38.778 c 0,1.073 0.485,1.611 1.453,1.611 l 3.719,0 c 1.356,0 2.328,-0.488 2.916,-1.465 l 18.389,-30.721 0.058,0 c -0.039,0.779 -0.058,1.56 -0.058,2.341 l 0,28.234 c 0,1.073 0.494,1.611 1.48,1.611 l 2.723,0 c 0.986,0 1.478,-0.538 1.478,-1.611 l 0,-38.778 C 30.693,0.537 30.205,0 29.23,0 L 26.652,0 C 25.285,0 24.309,0.488 23.721,1.465 L 4.16,34.063 l -0.058,0 C 4.139,33.28 4.16,32.499 4.16,31.719 L 4.16,1.61 C 4.16,0.537 3.672,0 2.695,0 L 0,0 z" />
      </g>
      <g
         transform="translate(1068.6973,446.8623)"
         id="g3035">
        <path
           inkscape:connector-curvature="0"
           id="path3037"
           style="fill:#505050;fill-opacity:1;fill-rule:nonzero;stroke:none"
           d="M 0,0 C -1.035,0.938 -1.309,1.758 -0.82,2.462 L 0.701,4.66 C 1.229,5.422 2.078,5.363 3.25,4.484 4.793,3.331 6.397,2.383 8.068,1.641 c 1.67,-0.743 3.696,-1.114 6.077,-1.114 1.757,0 3.242,0.264 4.453,0.791 1.209,0.528 2.181,1.286 2.914,2.272 0.732,0.987 1.097,2.183 1.097,3.591 0,1.017 -0.152,1.96 -0.453,2.831 -0.304,0.869 -0.787,1.597 -1.451,2.184 -0.664,0.587 -1.357,1.046 -2.078,1.379 -1.191,0.534 -2.973,1.154 -5.346,1.86 -2.373,0.706 -4.447,1.468 -6.224,2.289 -1.756,0.849 -3.16,1.878 -4.203,3.083 -1.043,1.205 -1.737,2.445 -2.079,3.72 -0.341,1.275 -0.511,2.723 -0.511,4.345 0,2.474 0.72,4.607 2.166,6.4 1.445,1.792 3.216,2.981 5.316,3.565 2.098,0.585 4.233,0.877 6.399,0.877 2.48,0 4.638,-0.32 6.472,-0.96 1.836,-0.641 3.477,-1.475 4.922,-2.503 1.014,-0.718 1.248,-1.478 0.701,-2.278 l -1.492,-2.14 c -0.449,-0.645 -1.328,-0.509 -2.637,0.41 -0.996,0.704 -2.211,1.363 -3.646,1.979 -1.436,0.615 -2.856,0.924 -4.262,0.924 -1.797,0 -3.289,-0.21 -4.48,-0.63 C 8.531,34.095 7.594,33.387 6.91,32.39 6.227,31.394 5.887,30.24 5.887,28.932 c 0,-0.822 0.076,-1.579 0.234,-2.273 0.156,-0.693 0.557,-1.402 1.199,-2.125 0.645,-0.723 1.426,-1.28 2.344,-1.671 1.231,-0.528 3.139,-1.148 5.727,-1.861 2.586,-0.714 4.845,-1.588 6.779,-2.624 1.797,-0.957 3.09,-1.959 3.881,-3.004 0.791,-1.046 1.406,-2.18 1.845,-3.4 0.44,-1.222 0.659,-2.594 0.659,-4.119 0,-2.774 -0.713,-5.088 -2.139,-6.944 -1.424,-1.856 -3.113,-3.145 -5.066,-3.869 -1.954,-0.723 -4.403,-1.084 -7.352,-1.084 -3.533,0 -6.463,0.411 -8.785,1.23 C 2.889,-1.991 1.15,-1.054 0,0" />
      </g>
      <g
         transform="translate(1124.9297,459.7197)"
         id="g3039">
        <path
           inkscape:connector-curvature="0"
           id="path3041"
           style="fill:#505050;fill-opacity:1;fill-rule:nonzero;stroke:none"
           d="m 0,0 0,24.367 c 0,1.073 0.488,1.612 1.465,1.612 l 2.695,0 c 0.977,0 1.465,-0.539 1.465,-1.612 l 0,-23.488 c 0,-5.468 0.775,-9.036 2.328,-10.705 1.551,-1.669 4.086,-2.504 7.6,-2.504 3.513,0 6.049,0.835 7.599,2.504 1.553,1.669 2.328,5.237 2.328,10.705 l 0,23.488 c 0,1.073 0.489,1.612 1.465,1.612 l 2.696,0 c 0.974,0 1.463,-0.539 1.463,-1.612 L 31.104,0 c 0,-6.189 -1.42,-10.554 -4.26,-13.092 -2.842,-2.538 -6.606,-3.807 -11.291,-3.807 -4.686,0 -8.449,1.269 -11.291,3.807 C 1.422,-10.554 0,-6.189 0,0" />
      </g>
      <g
         transform="translate(1187.8145,443.6992)"
         id="g3043">
        <path
           inkscape:connector-curvature="0"
           id="path3045"
           style="fill:#505050;fill-opacity:1;fill-rule:nonzero;stroke:none"
           d="m 0,0 c -0.977,0 -1.465,0.537 -1.465,1.61 l 0,38.778 c 0,1.073 0.488,1.611 1.465,1.611 l 2.693,0 c 0.977,0 1.465,-0.538 1.465,-1.611 l 0,-35.585 19.418,0 c 1.074,0 1.612,-0.439 1.612,-1.318 l 0,-2.167 C 25.188,0.439 24.65,0 23.576,0 L 0,0 z" />
      </g>
      <g
         transform="translate(1231.7246,480.6602)"
         id="g3047">
        <path
           inkscape:connector-curvature="0"
           id="path3049"
           style="fill:#505050;fill-opacity:1;fill-rule:nonzero;stroke:none"
           d="m 0,0 c -1.113,0 -1.67,0.439 -1.67,1.318 l 0,2.402 c 0,0.879 0.553,1.318 1.66,1.318 l 31.942,0 c 1.107,0 1.66,-0.439 1.66,-1.318 l 0,-2.402 C 33.592,0.439 33.035,0 31.922,0 l -13.149,0 0,-35.351 c 0,-1.073 -0.488,-1.61 -1.464,-1.61 l -2.696,0 c -0.976,0 -1.463,0.537 -1.463,1.61 L 13.15,0 0,0 z" />
      </g>
      <g
         transform="translate(1292.8633,443.6992)"
         id="g3051">
        <path
           inkscape:connector-curvature="0"
           id="path3053"
           style="fill:#505050;fill-opacity:1;fill-rule:nonzero;stroke:none"
           d="m 0,0 c -0.977,0 -1.465,0.537 -1.465,1.61 l 0,38.778 c 0,1.073 0.488,1.611 1.465,1.611 l 2.693,0 c 0.977,0 1.465,-0.538 1.465,-1.611 l 0,-38.778 C 4.158,0.537 3.67,0 2.693,0 L 0,0 z" />
      </g>
      <g
         transform="translate(1328.873,443.6992)"
         id="g3055">
        <path
           inkscape:connector-curvature="0"
           id="path3057"
           style="fill:#505050;fill-opacity:1;fill-rule:nonzero;stroke:none"
           d="m 0,0 c -0.977,0 -1.465,0.537 -1.465,1.61 l 0,38.778 c 0,1.073 0.485,1.611 1.453,1.611 l 3.719,0 c 1.356,0 2.328,-0.488 2.916,-1.465 l 18.389,-30.721 0.058,0 c -0.039,0.779 -0.058,1.56 -0.058,2.341 l 0,28.234 c 0,1.073 0.494,1.611 1.48,1.611 l 2.723,0 c 0.986,0 1.478,-0.538 1.478,-1.611 l 0,-38.778 C 30.693,0.537 30.205,0 29.23,0 L 26.652,0 C 25.285,0 24.309,0.488 23.721,1.465 L 4.16,34.063 l -0.058,0 C 4.139,33.28 4.16,32.499 4.16,31.719 L 4.16,1.61 C 4.16,0.537 3.672,0 2.695,0 L 0,0 z" />
      </g>
      <g
         transform="translate(1387.9043,464.6982)"
         id="g3059">
        <path
           inkscape:connector-curvature="0"
           id="path3061"
           style="fill:#505050;fill-opacity:1;fill-rule:nonzero;stroke:none"
           d="m 0,0 c 0,6.834 1.766,12.188 5.301,16.064 3.533,3.876 8.445,5.814 14.732,5.814 3.768,0 6.842,-0.649 9.225,-1.947 2.383,-1.299 4.129,-2.827 5.242,-4.584 0.684,-1.094 0.674,-1.884 -0.029,-2.372 l -2.196,-1.523 c -0.722,-0.508 -1.445,-0.205 -2.168,0.907 -0.586,0.879 -1.689,1.923 -3.308,3.134 -1.621,1.211 -3.779,1.817 -6.473,1.817 -4.785,0 -8.367,-1.519 -10.75,-4.555 C 7.195,9.719 6.004,5.467 6.004,0 c 0,-5.467 1.162,-9.719 3.484,-12.755 2.325,-3.036 6.033,-4.554 11.131,-4.554 2.537,0 4.748,0.308 6.633,0.923 1.885,0.615 3.207,1.469 3.969,2.563 l 0,7.76 -8.7,0 c -1.074,0 -1.611,0.44 -1.611,1.319 l 0,2.167 c 0,0.879 0.537,1.318 1.611,1.318 l 12.711,0 c 1.075,0 1.612,-0.439 1.612,-1.318 l 0,-13.823 c -2.383,-1.739 -4.764,-3.086 -7.147,-4.042 -2.383,-0.957 -5.506,-1.436 -9.371,-1.436 -6.443,0 -11.443,1.938 -14.996,5.814 C 1.775,-12.188 0,-6.834 0,0" />
      </g>
      <g
         transform="translate(703.1138,679.7407)"
         id="g3063">
        <path
           inkscape:connector-curvature="0"
           id="path3065"
           style="fill:#aa8358;fill-opacity:1;fill-rule:nonzero;stroke:none"
           d="m 0,0 -25.773,38.974 c -1.138,1.721 -2.918,1.896 -4.195,0.547 l 0,-86.058 c 1.277,-1.348 3.057,-1.172 4.195,0.548 L 0,-7.015 C 1.275,-5.085 1.275,-1.929 0,0" />
      </g>
      <g
         transform="translate(746.7632,487.667)"
         id="g3067">
        <path
           inkscape:connector-curvature="0"
           id="path3069"
           style="fill:#aa8358;fill-opacity:1;fill-rule:nonzero;stroke:none"
           d="m 0,0 -69.301,96.889 c -1.168,1.632 -2.978,1.843 -4.316,0.643 l 0,-143.854 c 1.833,-0.428 4.004,-0.204 5.478,0.676 L -1.163,-5.579 C 0.823,-4.392 1.346,-1.882 0,0" />
      </g>
      <g
         transform="translate(783.9556,629.5576)"
         id="g3071">
        <path
           inkscape:connector-curvature="0"
           id="path3073"
           style="fill:#aa8358;fill-opacity:1;fill-rule:nonzero;stroke:none"
           d="M 0,0 C 1.732,1.533 2.549,4.583 1.816,6.775 L -12.99,51.092 c -0.733,2.194 -2.75,2.734 -4.482,1.202 L -52.455,21.317 c -1.732,-1.533 -2.549,-4.583 -1.816,-6.776 l 14.809,-44.313 c 0.733,-2.194 2.75,-2.734 4.482,-1.202 L 0,0 z" />
      </g>
      <g
         transform="translate(824.6963,592.0693)"
         id="g3075">
        <path
           inkscape:connector-curvature="0"
           id="path3077"
           style="fill:#aa8358;fill-opacity:1;fill-rule:nonzero;stroke:none"
           d="m 0,0 c -0.141,2.308 -1.948,3.353 -4.018,2.319 l -41.807,-20.871 c -2.07,-1.032 -3.649,-3.766 -3.508,-6.074 l 2.834,-46.638 c 0.141,-2.307 1.948,-3.352 4.017,-2.319 l 41.805,20.867 c 2.07,1.033 3.648,3.767 3.507,6.075 L 0,0 z" />
      </g>
      <g
         transform="translate(674.8423,720.1494)"
         id="g3079">
        <path
           inkscape:connector-curvature="0"
           id="path3081"
           style="fill:#dda472;fill-opacity:1;fill-rule:nonzero;stroke:none"
           d="m 0,0 c -0.811,-0.034 -1.615,-0.505 -2.23,-1.435 l -25.772,-38.974 c -1.276,-1.929 -1.276,-5.085 0,-7.014 L -2.23,-86.397 c 0.615,-0.93 1.419,-1.402 2.23,-1.435 L 0,0 z" />
      </g>
      <g
         transform="translate(620.271,644.0986)"
         id="g3083">
        <path
           inkscape:connector-curvature="0"
           id="path3085"
           style="fill:#dda472;fill-opacity:1;fill-rule:nonzero;stroke:none"
           d="m 0,0 c 0.733,2.193 -0.084,5.243 -1.815,6.776 l -34.984,30.977 c -1.731,1.532 -3.748,0.992 -4.481,-1.202 L -56.086,-7.766 c -0.733,-2.192 0.084,-5.242 1.815,-6.775 l 34.981,-30.974 c 1.731,-1.532 3.748,-0.992 4.481,1.202 L 0,0 z" />
      </g>
      <g
         transform="translate(522.4248,545.4253)"
         id="g3087">
        <path
           inkscape:connector-curvature="0"
           id="path3089"
           style="fill:#dda472;fill-opacity:1;fill-rule:nonzero;stroke:none"
           d="m 0,0 c -0.14,-2.308 1.438,-5.042 3.508,-6.074 l 41.806,-20.865 c 2.069,-1.033 3.877,0.012 4.017,2.319 l 2.834,46.638 c 0.141,2.308 -1.438,5.042 -3.508,6.074 L 6.85,48.96 C 4.781,49.994 2.973,48.949 2.833,46.641 L 0,0 z" />
      </g>
      <g
         transform="translate(674.8423,585.9551)"
         id="g3091">
        <path
           inkscape:connector-curvature="0"
           id="path3093"
           style="fill:#dda472;fill-opacity:1;fill-rule:nonzero;stroke:none"
           d="m 0,0 c -0.858,-0.029 -1.711,-0.488 -2.362,-1.399 l -69.304,-96.889 c -1.345,-1.882 -0.821,-4.392 1.164,-5.579 l 66.977,-40.067 c 0.971,-0.58 2.245,-0.871 3.525,-0.884 L 0,0 z" />
      </g>
    </g>
  </g>
</svg>
