<?xml version="1.0" encoding="UTF-8" standalone="no"?>
<!-- Generator: Adobe Illustrator 16.0.0, SVG Export Plug-In . SVG Version: 6.00 Build 0)  -->

<svg
   xmlns:dc="http://purl.org/dc/elements/1.1/"
   xmlns:cc="http://creativecommons.org/ns#"
   xmlns:rdf="http://www.w3.org/1999/02/22-rdf-syntax-ns#"
   xmlns:svg="http://www.w3.org/2000/svg"
   xmlns="http://www.w3.org/2000/svg"
   xmlns:sodipodi="http://sodipodi.sourceforge.net/DTD/sodipodi-0.dtd"
   xmlns:inkscape="http://www.inkscape.org/namespaces/inkscape"
   version="1.1"
   id="Layer_1"
   x="0px"
   y="0px"
   width="109.588"
   height="40.926998"
   viewBox="0 0 109.588 40.926998"
   enable-background="new 0 0 138 64"
   xml:space="preserve"
   sodipodi:docname="input.svg"
   inkscape:version="0.92.3 (2405546, 2018-03-11)"><metadata
   id="metadata21"><rdf:RDF><cc:Work
       rdf:about=""><dc:format>image/svg+xml</dc:format><dc:type
         rdf:resource="http://purl.org/dc/dcmitype/StillImage" /><dc:title /></cc:Work></rdf:RDF></metadata><defs
   id="defs19" /><sodipodi:namedview
   pagecolor="#ffffff"
   bordercolor="#666666"
   borderopacity="1"
   objecttolerance="10"
   gridtolerance="10"
   guidetolerance="10"
   inkscape:pageopacity="0"
   inkscape:pageshadow="2"
   inkscape:window-width="1920"
   inkscape:window-height="976"
   id="namedview17"
   showgrid="false"
   inkscape:zoom="2.4782609"
   inkscape:cx="-17.657789"
   inkscape:cy="21.593"
   inkscape:window-x="0"
   inkscape:window-y="27"
   inkscape:window-maximized="1"
   inkscape:current-layer="Layer_1" />

<g
   id="g838"
   transform="translate(-15.842,-12.666)"><g
     id="g12">
	<path
   id="path2"
   d="m 16.118,40.972 c 1,0 1.637,-0.275 1.913,-0.825 0.276,-0.554 0.414,-1.446 0.414,-2.684 v -6.546 c 0,-1.236 0.052,-2.379 0.158,-3.432 l -2.761,0.12 v -2.998 c 1.656,0 2.997,-0.118 4.023,-0.355 1.025,-0.237 1.708,-0.512 2.05,-0.829 h 2.129 v 13.765 c 0,1.262 -0.052,2.418 -0.158,3.471 0.841,-0.079 1.697,-0.12 2.563,-0.12 v 2.997 H 16.118 Z M 19.47,18.987 c -0.579,-0.617 -0.867,-1.374 -0.867,-2.268 0,-0.893 0.302,-1.662 0.906,-2.306 0.604,-0.644 1.315,-0.966 2.13,-0.966 0.841,0 1.543,0.314 2.109,0.946 0.565,0.63 0.848,1.407 0.848,2.326 0,0.921 -0.27,1.684 -0.809,2.288 -0.539,0.606 -1.242,0.908 -2.109,0.908 -0.894,0 -1.63,-0.31 -2.208,-0.928 z"
   inkscape:connector-curvature="0"
   style="fill:#006248" />
	<path
   id="path4"
   d="m 28.307,40.972 c 1,0 1.637,-0.275 1.913,-0.825 0.276,-0.554 0.414,-1.446 0.414,-2.684 v -6.625 c 0,-1.183 0.052,-2.3 0.158,-3.353 l -2.76,0.12 v -2.998 c 1.656,0 2.997,-0.118 4.023,-0.355 1.025,-0.237 1.708,-0.512 2.05,-0.829 h 1.932 c 0,0.053 0.053,0.711 0.158,1.972 h 0.079 c 0.763,-0.603 1.703,-1.124 2.821,-1.557 1.115,-0.434 2.069,-0.651 2.857,-0.651 2.392,0 4.103,0.685 5.128,2.052 1.025,1.367 1.538,3.588 1.538,6.664 v 5.286 c 0,1.262 -0.053,2.418 -0.158,3.471 0.867,-0.079 1.722,-0.12 2.563,-0.12 v 2.997 H 40.69 v -2.564 c 1,0 1.644,-0.275 1.932,-0.825 0.289,-0.554 0.434,-1.446 0.434,-2.684 l -0.039,-5.599 c 0,-1.736 -0.245,-3.012 -0.73,-3.826 -0.486,-0.815 -1.307,-1.223 -2.464,-1.223 -0.632,0 -1.277,0.139 -1.933,0.415 -0.658,0.277 -1.209,0.625 -1.655,1.046 v 8.913 c 0,1.262 -0.053,2.418 -0.158,3.471 0.841,-0.079 1.696,-0.12 2.563,-0.12 v 2.997 H 28.307 Z"
   inkscape:connector-curvature="0"
   style="fill:#006248" />
	<path
   id="path6"
   d="m 51.471,51.029 c 1,0 1.645,-0.275 1.933,-0.827 0.288,-0.552 0.434,-1.446 0.434,-2.684 v -16.68 c 0,-1.183 0.053,-2.3 0.158,-3.353 l -2.8,0.12 v -2.998 c 1.655,0 2.997,-0.118 4.022,-0.355 1.026,-0.237 1.708,-0.512 2.052,-0.829 h 1.933 c 0.052,0.448 0.118,1.079 0.197,1.894 h 0.039 c 1.631,-1.42 3.392,-2.131 5.286,-2.131 1.578,0 2.964,0.409 4.16,1.224 1.195,0.816 2.128,1.979 2.799,3.49 0.67,1.512 1.006,3.268 1.006,5.265 0,2.103 -0.407,3.988 -1.222,5.659 -0.815,1.669 -1.966,2.978 -3.45,3.923 -1.486,0.946 -3.189,1.421 -5.107,1.421 -1.027,0 -2.197,-0.238 -3.511,-0.711 v 3.785 c 0,1.131 -0.039,2.288 -0.119,3.472 0.815,-0.078 1.657,-0.118 2.524,-0.118 v 2.997 H 51.471 Z m 15.42,-17.273 c 0,-1.945 -0.348,-3.601 -1.044,-4.968 -0.696,-1.367 -1.741,-2.052 -3.135,-2.052 -0.658,0 -1.281,0.158 -1.873,0.474 -0.592,0.315 -1.072,0.736 -1.439,1.262 v 12.029 c 0.263,0.184 0.651,0.347 1.164,0.493 0.513,0.144 1.032,0.217 1.557,0.217 3.179,0 4.77,-2.485 4.77,-7.455 z"
   inkscape:connector-curvature="0"
   style="fill:#006248" />
	<path
   id="path8"
   d="m 77.91,42.117 c -1.013,-1.368 -1.52,-3.589 -1.52,-6.664 v -4.536 c 0,-1.103 0.04,-2.248 0.119,-3.432 l -2.762,0.12 v -2.998 c 1.657,0 2.998,-0.118 4.023,-0.355 1.024,-0.237 1.708,-0.512 2.05,-0.829 h 2.17 v 12.069 c 0,1.734 0.223,3.009 0.671,3.825 0.446,0.813 1.155,1.222 2.129,1.222 0.656,0 1.333,-0.184 2.03,-0.552 0.696,-0.369 1.282,-0.814 1.756,-1.341 v -7.729 c 0,-1.236 0.052,-2.379 0.158,-3.432 l -2.761,0.12 v -2.998 c 1.655,0 2.99,-0.118 4.002,-0.355 1.013,-0.237 1.689,-0.512 2.031,-0.829 h 2.17 v 13.765 c 0,1.262 -0.056,2.418 -0.158,3.471 0.841,-0.079 1.696,-0.12 2.563,-0.12 v 2.997 H 89.09 l -0.238,-2.052 h -0.038 c -0.974,0.842 -1.912,1.5 -2.82,1.973 -0.907,0.473 -1.926,0.711 -3.056,0.711 -2.341,0 -4.016,-0.684 -5.028,-2.051 z"
   inkscape:connector-curvature="0"
   style="fill:#006248" />
	<path
   id="path10"
   d="m 99.336,36.596 0.077,-9.503 h -2.681 v -3.274 c 0.84,0 1.637,-0.262 2.386,-0.79 0.749,-0.524 1.386,-1.169 1.913,-1.931 0.526,-0.763 0.894,-1.499 1.104,-2.208 h 2.917 l -0.04,4.929 h 5.01 v 3.037 l -5.01,0.118 -0.039,9.702 c 0,2.552 0.791,3.826 2.367,3.826 1.262,0 2.458,-0.788 3.588,-2.366 l 1.894,1.773 c -1.236,1.814 -2.471,2.978 -3.707,3.489 -1.236,0.515 -2.445,0.771 -3.629,0.771 -4.1,-10e-4 -6.15,-2.524 -6.15,-7.573 z"
   inkscape:connector-curvature="0"
   style="fill:#006248" />
</g><path
     id="path14"
     d="m 117.003,12.666 c -1.748,0 -3.588,0.738 -5.754,2.674 l -2.674,-2.674 v 8.043 h 8.046 l -2.826,-2.826 c 4.825,-4.185 11.384,-0.746 11.384,5.219 0.157,-0.645 0.251,-1.316 0.251,-2.011 0,-4.653 -3.774,-8.425 -8.427,-8.425 z"
     inkscape:connector-curvature="0"
     style="fill:#fd9626" /></g>
</svg>