<svg width="687" height="128" viewBox="0 0 687 128" fill="none" xmlns="http://www.w3.org/2000/svg">
<g clip-path="url(#clip0_695_13)">
<path d="M426 38H443.624V44.6903C447.939 38.8049 453.268 37 460.146 37C466.578 37 470.979 38.7164 474.655 44.6903C479.337 38.8049 484.753 37 491.912 37C503.383 37 510 42.3578 510 53.1839V88H490.905V60.4667C490.905 54.3937 489.067 51.5889 484.385 51.5889C479.704 51.5889 477.498 54.4828 477.498 60.6538V88H458.491V61.1261C458.491 54.4927 456.654 51.5988 451.701 51.5988C447.387 51.5988 445.094 54.5907 445.094 60.3776V88H426V37.3976V38Z" fill="#12181F"/>
<path d="M551.204 81.6076C546.21 85.998 540.574 88 533.369 88C522.192 88 516 82.3389 516 72.5576C516 61.7738 522.834 58.7607 537.341 56.9311C546.765 55.7466 550.835 56.1989 550.835 51.7223C550.835 48.8923 548.528 47.698 543.815 47.698C539.745 47.698 537.623 49.2477 537.254 52.5407H518.22C518.405 41.6612 527.274 37 544.467 37C553.434 37 560.268 37.916 563.598 40.1112C568.778 43.5868 569.878 47.236 569.878 53.7253V80.7795C569.878 82.5122 570.617 83.9757 572 84.891V87H552.412L551.214 81.5979L551.204 81.6076ZM535.861 72.0084C535.861 74.7523 537.798 76.3988 541.401 76.3988C547.962 76.3988 550.738 73.4719 550.738 67.0785C550.738 66.2601 550.738 65.433 550.64 64.6146C541.586 67.9938 535.852 67.3585 535.852 72.0181L535.861 72.0084Z" fill="#12181F"/>
<path d="M579.01 38H596.123V43.5691C599.97 38.3057 604.906 37 611.867 37C624.217 37 633 46.1569 633 61.9474C633 77.7369 624.487 87 611.491 87C605.543 87 601.156 86.0559 597.762 81.7163V106H579V38H579.01ZM605.918 50.5934C600.153 50.5934 597.772 54.1931 597.772 61.9474C597.772 69.7007 600.423 73.0283 605.736 73.0283C611.048 73.0283 613.698 69.3317 613.698 61.9474C613.698 54.563 611.231 50.5934 605.918 50.5934Z" fill="#12181F"/>
<path d="M654.943 71.02C654.943 75.133 657.065 77.1454 661.32 77.1454C665.574 77.1454 667.696 75.6814 667.696 73.1196C667.696 69.6432 664.921 69.2769 659.47 68.092C644.314 64.8946 637.295 62.2456 637.295 51.9975C637.295 41.75 645.521 37 661.408 37C676.097 37 684.138 41.2107 685.335 51.266H667.784C667.511 48.4339 665.106 46.5077 661.592 46.5077C658.079 46.5077 656.326 47.7886 656.326 49.8882C656.326 53.3656 659.558 53.3656 665.662 54.7337C680.264 58.027 687 60.676 687 71.1837C687 82.2408 678.22 88 661.038 88C645.141 88 636.827 82.3368 636 71.0006H654.943V71.02Z" fill="#12181F"/>
<path d="M207.748 56.949C207.748 48.2714 206.157 44.1738 198.746 44.1738C190.869 44.1738 186.175 49.2148 186.175 58.1676V87.9901H177.825V56.959C177.825 48.2813 176.234 44.1836 168.822 44.1836C161.035 44.1836 156.252 49.3132 156.252 58.1775V88H148V38H155.876V45.1172C159.533 39.614 164.415 37 171.164 37C177.351 37 181.481 39.4273 184.574 44.6455C188.795 39.4175 193.676 37 200.337 37C206.997 37 211.593 39.4273 214.034 43.6235C215.911 46.9843 216 51.0818 216 56.3105V88H207.748V56.9689V56.949Z" fill="#12181F"/>
<path d="M267.321 70.9746C265.469 81.5954 256.971 88 244.954 88C230.889 88 222 78.5666 222 63.0063C222 46.4342 230.889 37 244.954 37C259.018 37 268 45.701 268 61.2604C268 62.4468 268 63.6429 267.908 64.8302H230.992C231.187 74.9967 236.661 80.6693 245.736 80.6693C252.763 80.6693 257.455 77.1872 258.822 70.9648H267.321V70.9746ZM259.018 58.1546C258.925 49.0867 253.935 44.148 245.252 44.148C236.568 44.148 231.774 49 230.992 58.1546H259.018Z" fill="#12181F"/>
<path d="M275 38H283.066L283.066 46.9372C285.726 40.2193 290.274 37 296.821 37C297.58 37 298.24 37 299 37.0897V45.8905C298.34 45.8009 297.67 45.8009 297.01 45.8009C288.095 45.8009 283.346 50.7243 283.346 59.9939V88H275L275 38Z" fill="#12181F"/>
<path d="M323.763 87.7018C310.798 87.7018 302 77.6907 302 62.2118C302 46.7339 310.701 37 323.851 37C331.168 37 335.518 40.0976 339.127 44.5569V38H347V85.1608C347 99.6318 340.513 106 324.407 106C311.355 106 303.941 100.629 303.941 92.0755V91.7111H311.901V91.8933C311.901 96.8126 316.164 99.2674 324.68 99.2674C335.147 99.2674 339.127 95.5373 339.127 86.8868V80.3374C335.333 85.2567 330.24 87.7115 323.754 87.7115L323.763 87.7018ZM310.526 62.3939C310.526 73.9499 315.988 80.5099 324.875 80.5099C334.786 80.5099 339.411 74.7746 339.411 62.6721C339.411 50.5696 334.406 44.1925 324.778 44.1925C315.706 44.1925 310.516 50.5599 310.516 62.3939H310.526Z" fill="#12181F"/>
<path d="M358.222 20H366.583V29.3908H358.222V20ZM358.222 38H366.583V88H358.222V38Z" fill="#12181F"/>
<path d="M409.539 57.286C409.539 48.548 407.546 44.5111 399.556 44.5111C390.334 44.5111 384.827 49.865 384.827 59.542V88H376.466V38H384.446V45.5501C388.251 39.9196 393.478 37 400.417 37C407.927 37 413.054 39.4446 415.817 43.858C417.91 47.054 418 50.904 418 55.693V88H409.539V57.296V57.286Z" fill="#12181F"/>
<path d="M64 106.67H106.66V21.34H64V0H128V128H64V106.67Z" fill="#73D19C"/>
<path d="M29.4724 64C29.4724 83.072 44.9279 98.517 63.99 98.517V29.4819C44.9179 29.4819 29.4724 44.9374 29.4724 64Z" fill="#73D19C"/>
<path d="M64 106.67H21.33V21.34H64V0H0V128H64V106.67Z" fill="#12181F"/>
<path d="M98.518 64C98.518 83.072 83.062 98.517 64 98.517V29.4819C83.072 29.4819 98.518 44.9374 98.518 64Z" fill="#12181F"/>
</g>
<defs>
<clipPath id="clip0_695_13">
<rect width="687" height="128" fill="white"/>
</clipPath>
</defs>
</svg>
