<svg width="90" height="90" viewBox="0 0 90 90" fill="none" xmlns="http://www.w3.org/2000/svg">
<g clip-path="url(#clip0)">
<path d="M33.1618 47.4414C27.9418 47.4414 23.708 51.6752 23.708 56.8952V80.5426C23.708 85.7626 27.9418 89.9964 33.1618 89.9964C38.3818 89.9964 42.6155 85.7626 42.6155 80.5426V56.8952C42.6118 51.6752 38.378 47.4414 33.1618 47.4414Z" fill="#E91E63"/>
<path d="M0.0703125 56.8948C0.0703125 62.1186 4.30781 66.3561 9.53156 66.3561C14.7553 66.3561 18.9928 62.1186 18.9928 56.8948V47.4336H9.53906C9.53531 47.4336 9.53531 47.4336 9.53156 47.4336C4.30781 47.4336 0.0703125 51.6711 0.0703125 56.8948Z" fill="#E91E63"/>
<path d="M33.1727 -0.00390625C33.1689 -0.00390625 33.1652 -0.00390625 33.1614 -0.00390625C27.9377 -0.00390625 23.7002 4.23359 23.7002 9.45734C23.7002 14.6811 27.9377 18.9186 33.1614 18.9186H42.6152V9.45734C42.6152 9.45359 42.6152 9.44609 42.6152 9.43859C42.6114 4.22234 38.3852 -0.00390625 33.1727 -0.00390625Z" fill="#00BCD4"/>
<path d="M9.46809 42.6373H33.1606C38.3843 42.6373 42.6218 38.3998 42.6218 33.1761C42.6218 27.9523 38.3843 23.7148 33.1606 23.7148H9.46809C4.24434 23.7148 0.00683594 27.9523 0.00683594 33.1761C0.00683594 38.3998 4.24434 42.6373 9.46809 42.6373Z" fill="#00BCD4"/>
<path d="M80.464 23.7109C75.2477 23.7109 71.0215 27.9372 71.0215 33.1534V33.1722V42.6334H80.4752C85.699 42.6334 89.9365 38.3959 89.9365 33.1722C89.9365 27.9484 85.699 23.7109 80.4752 23.7109C80.4715 23.7109 80.4677 23.7109 80.464 23.7109Z" fill="#4CAF50"/>
<path d="M47.4043 9.45766V33.1764C47.4043 38.3964 51.638 42.6302 56.858 42.6302C62.078 42.6302 66.3118 38.3964 66.3118 33.1764V9.45766C66.3118 4.23766 62.078 0.00390625 56.858 0.00390625C51.638 0.00390625 47.4043 4.23766 47.4043 9.45766Z" fill="#4CAF50"/>
<path d="M66.3059 80.5338C66.3059 75.3138 62.0722 71.0801 56.8522 71.0801H47.3984V80.5413C47.4022 85.7576 51.6322 89.9876 56.8522 89.9876C62.0722 89.9876 66.3059 85.7538 66.3059 80.5338Z" fill="#FF9800"/>
<path d="M80.5454 47.4336H56.8529C51.6291 47.4336 47.3916 51.6711 47.3916 56.8948C47.3916 62.1186 51.6291 66.3561 56.8529 66.3561H80.5454C85.7691 66.3561 90.0066 62.1186 90.0066 56.8948C90.0066 51.6711 85.7691 47.4336 80.5454 47.4336Z" fill="#FF9800"/>
</g>
<defs>
<clipPath id="clip0">
<rect width="90" height="90" fill="white"/>
</clipPath>
</defs>
</svg>
